<?xml version="1.0" standalone="no"?>
<!DOCTYPE svg PUBLIC "-//W3C//DTD SVG 20010904//EN"
 "http://www.w3.org/TR/2001/REC-SVG-20010904/DTD/svg10.dtd">
<svg version="1.0" xmlns="http://www.w3.org/2000/svg"
 width="200.000000pt" height="200.000000pt" viewBox="0 0 200.000000 200.000000"
 preserveAspectRatio="xMidYMid meet">
<metadata>
Created by potrace 1.14, written by Peter Selinger 2001-2017
</metadata>
<g transform="translate(0.000000,200.000000) scale(0.100000,-0.100000)"
fill="#000000" stroke="none">
<path d="M905 1988 c-107 -13 -119 -15 -195 -38 -156 -46 -321 -149 -435 -271
-123 -132 -223 -324 -249 -480 -3 -19 -8 -45 -11 -59 -8 -34 -9 -214 -2 -270
24 -192 124 -401 262 -548 192 -206 452 -317 730 -314 80 1 114 4 190 16 95
15 256 83 361 151 75 49 219 193 266 266 163 249 211 532 139 812 -83 319
-330 584 -641 687 -47 16 -98 31 -115 33 -16 3 -47 8 -68 12 -57 10 -165 11
-232 3z m272 -163 c493 -113 779 -605 627 -1078 -68 -215 -208 -384 -405 -490
-223 -121 -498 -133 -729 -33 -498 216 -668 815 -358 1263 189 273 544 412
865 338z"/>
<path d="M480 1468 c-13 -5 -28 -14 -32 -21 -4 -7 -8 -181 -8 -388 0 -352 1
-378 19 -400 l18 -23 512 0 c282 -1 521 2 531 6 10 4 24 16 30 28 15 28 15
751 1 779 -6 11 -23 22 -38 25 -49 9 -1007 4 -1033 -6z m940 -408 c0 -260 -1
-280 -17 -281 -23 -1 -782 -1 -805 0 -17 1 -18 21 -18 281 l0 279 420 0 420 1
0 -280z"/>
<path d="M1060 1125 c-64 -63 -120 -115 -126 -115 -5 0 -28 18 -49 41 -47 48
-73 60 -100 46 -58 -30 -48 -61 54 -160 49 -48 92 -87 96 -87 5 0 77 68 162
152 121 121 153 158 153 179 0 30 -17 48 -51 54 -18 4 -46 -18 -139 -110z"/>
<path d="M863 552 c-116 -3 -129 -8 -138 -51 -2 -11 4 -30 14 -43 18 -22 23
-22 247 -23 224 -1 283 5 285 28 1 7 3 22 4 34 5 45 -23 55 -167 56 -73 1
-183 1 -245 -1z"/>
</g>
</svg>
